<?xml version="1.0" encoding="UTF-8"?>
<svg id="Capa_2" data-name="Capa 2" xmlns="http://www.w3.org/2000/svg" viewBox="0 0 78.83 89.78">
  <defs>
    <style>
      .cls-1 {
        fill: #d90404;
      }
    </style>
  </defs>
  <path class="cls-1" d="M38.25,21.12c.17,0,.35,0,.52.01.63-2.14,1.1-4.41,1.32-6.48.18-1.67.27-3.64,0-5.13-.13-.74-.37-1.64-.62-2.12-.09-.18-.2-.35-.3-.53-.05-.08-.11-.17-.17-.25.04.05.16.18-.04-.05-.11-.13-.23-.26-.36-.37-.04-.04-.31-.25-.26-.22-.35-.24-.5-.32-.72-.39-.11-.03-.22-.06-.32-.09-.02,0-.03-.01-.04-.01-.02,0-.05,0-.09,0-.1,0-.24.02-.27.02-.07.02-.14.03-.2.05-.05.01-.1.03-.14.05-.11.05-.22.11-.33.17-.1.06-.2.13-.3.2-.04.03-.14.12-.19.16-.22.2-.42.42-.62.64-.07.08-.14.16-.21.25-.01.01-.01.02-.03.04-.1.13-.19.27-.29.41-.2.29-.38.59-.56.89-1.62,2.79-2.57,5.9-3.42,9.08-.31,1.15-.58,2.3-.83,3.46,1.43-.14,2.85-.2,4.27-.17,1.38.03,2.78.16,4.18.38Z"/>
  <path class="cls-1" d="M34.37,33.43c-.3.89-.56,1.78-.77,2.7-.08.37-.16.74-.22,1.12,0,.05-.02.11-.02.16-.02.2-.04.4-.04.6,0,3.56,4.09,3.42,6.77,2.79,0-.05.02-.09.02-.14.45-3.34,1.75-6.74,3.48-9.61.07-.12.15-.25.22-.37.05-.09.1-.18.16-.26.09-.13.18-.26.27-.39,1.24-1.84,2.78-3.49,4.68-4.6-1.17-2.13-3.88-2.68-6.3-2.04-4.41,1.17-6.91,6.06-8.25,10.05Z"/>
  <path class="cls-1" d="M34.95,7s.07-.09,0,0h0Z"/>
  <path class="cls-1" d="M34.5,62c-6.18,1.44-12.85,1.46-18.86-.72-2.85-1.04-5.57-2.58-7.79-4.63.13.39.28.71.56,1.11,0,0,.17.21.23.26.14.14.28.27.42.4.2.18.02.03.3.23.17.12.34.23.51.34.98.63,1.99,1.19,2.99,1.79,2.77,1.68,5.32,3.64,7.89,5.61.45.34.91.68,1.4.96.26.15.59.26.71.27.98.1,1.7-.55,2.43-1.11,1.37-1.06,2.87-1.91,4.57-2.34,1.51-.38,3.03-.39,4.57-.36,1.9.03,3.79-.6,5.55-1.46,2.63-1.29,5.09-3.05,7.26-5.1-.18-.26-.36-.53-.5-.81-3.76,2.66-8.11,4.57-12.24,5.57Z"/>
  <path class="cls-1" d="M20.1,71.21c-.73-.2-1.45-.42-2.17-.68-1.61-.58-3.16-1.34-4.62-2.25,1.06,1.04,2.28,1.95,3.6,2.69,1.6.9,3.3,1.6,5.06,2.1.2.05.39.1.59.15.31.08.62.16.94.23,7.03,1.49,14.8.13,21.11-3.1.31-.85.7-1.67,1.16-2.45-2.84,1.54-5.84,2.7-8.74,3.4-5.52,1.29-11.43,1.44-16.92-.1Z"/>
  <path class="cls-1" d="M44.72,47.79c-2.06-.49-3.67-2.05-4.35-3.97-2.13.49-4.52.62-6.45-.27-2.03-.93-3.41-2.93-3.58-5.14-.16-2.07.64-4.39,1.33-6.32,1.01-2.84,2.4-5.58,4.39-7.86.05-.06.11-.11.16-.17-2.16-.05-4.32-.1-6.48-.14-8.98.97-18.61,5.78-22.73,14.16-1.65,3.35-2.05,7.19-.81,10.73.07.21.17.41.25.61.62,1.39,1.4,2.62,2.32,3.7.15.17.29.35.45.51.02.02.03.03.05.05,1.33,1.37,2.92,2.5,4.6,3.39,1.05.55,2.14,1.01,3.25,1.4,5.33,1.74,11.52,1.66,16.62.47,4.11-1,8.55-2.98,12.22-5.78.01-.48.07-.98.19-1.49.47-1.91,1.95-3.17,3.66-3.96-1.69.36-3.51.45-5.1.07ZM16.54,38.56c0,.2-.07.39-.18.56-.09.17-.22.32-.39.42-.15.13-.32.22-.51.27-.1.02-.19.05-.29.07-.27.07-.53.07-.8,0-.12-.05-.24-.1-.36-.15-.23-.13-.4-.31-.54-.54l-.15-.36c-.06-.2-.07-.4-.03-.6,0-.2.07-.39.18-.56.09-.17.22-.32.39-.42.15-.13.32-.22.51-.27.1-.02.19-.05.29-.07.27-.07.53-.07.8,0,.12.05.24.1.36.15.23.13.41.31.54.54.05.12.1.24.15.36.06.2.07.4.03.6ZM23.01,44.89c-1.93,0-1.93-3,0-3s1.93,3,0,3ZM24.35,33.8c-1.94,0-1.93-3,0-3s1.93,3,0,3Z"/>
  <path class="cls-1" d="M75.61,49.28c.65-4.39,1.29-8.77,1.94-13.16.27-1.85.55-3.7.82-5.56.62-4.3.61-8.56-.06-12.85-.33-2.09-.86-4.32-2.05-6.1-.59-.88-1.31-1.6-2.12-2.14h0s0,0,0,0c-1.66-1.1-3.71-1.44-5.83-.81-4.37,1.31-7.16,5.77-8.19,9.98-.32,1.3-.63,2.61-.95,3.91-1.28-.6-2.7-.95-4.23-1.07-.68-.05-1.34-.04-1.98.02-1.82-2.34-4.68-3.71-7.76-3.86.09-.55.18-1.1.25-1.66.61-4.57.63-9.81-2.66-13.43-1.78-1.96-4.47-2.9-7.06-2.42-1.8.33-3.43,1.5-4.59,2.89-2.62,3.14-4.07,7.12-5.23,10.99-.52,1.72-.97,3.46-1.36,5.22-8.25,1.92-15.95,6.52-20.75,13.49C.93,36.86-.51,41.95.16,46.96c.19,1.43.56,2.8,1.06,4.09.24,2.67.7,5.54,1.81,8,.13.44.28.88.44,1.3.64,5.8,3.69,10.53,8.41,13.99,2.32,1.7,4.97,2.92,7.74,3.75-.46,1.38-.13,2.89.92,4.11,1.49,1.73,3.62,2.75,5.69,3.61,2.03.84,4.15,1.41,6.29,1.87,4.23.91,8.56,1.42,12.87,1.74,3.42.25,6.86.4,10.29.35,3.98-.07,8.44-.41,11.84-2.7,3.25-2.19,5.18-5.51,6.74-9.01,1.19-2.67,2.58-5.47,3.22-8.33.86-3.79.65-7.82-.73-11.46-.87-2.3-2.07-4.46-3.54-6.38,1.18-.42,2.19-1.31,2.38-2.6ZM72.73,17.74c-.23-1.09-.63-3.38-1.83-3.85-1.58-.62-3.56,1.86-4.26,3.05-.87,1.47-1.21,3.1-1.6,4.73-2,8.23-4.01,16.45-6.01,24.68,0,.03.01.07.02.1.6.06,1.2.15,1.79.27,6.46,1.33,11.23,6.2,13.52,12.23,1.23,3.23,1.49,6.76.73,10.13-.6,2.66-1.86,5.25-2.97,7.73-1.37,3.07-2.98,6.19-5.84,8.12-3.05,2.05-7.02,2.3-10.58,2.36-3.43.06-6.87-.09-10.29-.35-4.09-.3-8.2-.79-12.21-1.65-2.14-.46-4.27-1.03-6.29-1.87-1.67-.7-3.38-1.57-4.58-2.96-1.26-1.46.86-3.59,2.12-2.12.5.58.88.87,1.41,1.21,3.16,2.01,7.2,2.75,10.85,3.37,3.24.55,6.52.9,9.81,1.1,3.32.21,6.66.35,9.99.25,1.8-.06,3.41-.17,5.11-.59,1.38-.34,2.18-.65,3.38-1.5.03-.02.05-.04.07-.05.05-.04.1-.08.15-.12.12-.1.24-.2.35-.31.23-.21.45-.44.66-.67.12-.14.24-.28.36-.42.2-.24.02,0,.16-.2.19-.26.37-.52.55-.79.9-1.39,1.62-2.9,2.29-4.42.99-2.23,2.09-4.53,2.63-6.92.68-3,.28-6.13-.9-8.96-2.16-5.18-6.57-9.17-12.25-9.88-2.48-.31-5.36-.1-7.69.85-1.9.77-2.73,2.17-2.13,4.18.91,3.04,4.47,3.99,7.35,4.22,1.49.12,2.99.09,4.48-.03.23-.02.45-.04.67-.07.45-.07.91-.13,1.36-.18,1.69-.2,2.04,2.65.4,2.95-.2.04-.41.06-.61.09-.34.05-.68.09-1.02.13-2.61.4-5.22,1.1-7.56,2.33-3.03,1.59-5.31,3.85-6.65,6.91-.03.07-.08.2-.1.25-.05.14-.11.29-.16.43-.08.24-.16.47-.22.71-.13.44-.22.88-.31,1.33-.01.07-.02.14-.03.22,0,.1-.02.2-.03.3,0,.11-.02.21-.02.32-.02,1.93-3.02,1.93-3,0,0-.05,0-.09.01-.14-4.91,2.05-10.3,3.01-15.43,2.81-9.95-.4-20.89-5.85-22.16-16.59-.35-.77-.66-1.56-.89-2.41-1.04-2.3-1.42-5.05-1.63-7.52-.51-1.22-.87-2.52-1.06-3.87-.6-4.47.78-8.97,3.32-12.66,4.7-6.83,12.54-11.12,20.71-12.64.43-2.25,1-4.48,1.65-6.67,1.03-3.43,2.27-7.09,4.59-9.89.89-1.07,2.08-2.01,3.49-2.24,1.73-.29,3.47.5,4.63,1.78,2.7,2.97,2.47,7.63,1.97,11.33-.22,1.6-.52,3.21-.91,4.79.6-.15,1.22-.26,1.86-.3,3.31-.2,6.42,1.23,7.8,4.12,1.01-.26,2.08-.37,3.2-.28,2.25.17,4.37,1.02,5.76,2.85.61-2.51,1.22-5.02,1.83-7.52.83-3.36,2.93-7.12,6.45-8.23,4.69-1.48,6.37,3.75,6.93,7.31.6,3.81.61,7.7.06,11.52-.27,1.85-.55,3.7-.82,5.56-.65,4.39-1.29,8.77-1.94,13.16-.12.8-1.14,1.25-1.85,1.05-.85-.24-1.17-1.04-1.05-1.85.7-4.74,1.4-9.48,2.1-14.22.78-5.28,1.47-10.56.33-15.87Z"/>
  <path class="cls-1" d="M51.9,27.32c-.15.05-.29.1-.43.16-3.02,1.34-4.95,4.13-6.32,7.03-.05.1-.09.2-.13.3-.11.23-.21.47-.31.7-.06.15-.12.3-.18.45-.08.19-.15.39-.23.58-.06.17-.12.35-.18.53-.06.18-.13.36-.18.54-.06.17-.11.35-.16.52-.05.18-.11.36-.16.54-.16.58-.31,1.16-.43,1.75,0,.04-.02.08-.02.13-.04.21-.08.42-.12.63,0,0,0,0,0,0,0,.01,0,.03,0,.04,0,.06-.02.13-.02.19-.35,5.65,7.91,3.39,10.51,1.5,2.08-1.51,3.46-3.87,4.46-6.19.79-1.82,1.41-3.94,1.13-5.94-.48-3.5-4.19-4.42-7.22-3.46Z"/>
</svg>