<?xml version="1.0" encoding="UTF-8"?>
<svg id="Layer_1" xmlns="http://www.w3.org/2000/svg" version="1.1" viewBox="0 0 32 32">
  <!-- Generator: Adobe Illustrator 29.6.1, SVG Export Plug-In . SVG Version: 2.1.1 Build 9)  -->
  <defs>
    <style>
      .st0 {
        fill: #b23224;
      }
    </style>
  </defs>
  <path class="st0" d="M9.81,14.1c-.4,0-.76.16-1.01.44-.22.25-.33.57-.33.91,0,.76.59,1.35,1.34,1.35h0c.75,0,1.34-.59,1.34-1.35s-.58-1.35-1.34-1.35Z"/>
  <path class="st0" d="M8.1,13.17l-.12-.27c-.13-.21-.29-.37-.59-.53l-.23-.09c-.12-.03-.24-.05-.35-.05s-.23.02-.43.07c-.16.04-.38.12-.44.2-.17.11-.31.26-.39.4-.1.15-.2.38-.17.45-.05.21-.04.43.04.68h0s.12.27.12.27c.13.21.29.37.59.53l.24.09c.12.03.23.04.35.04.13,0,.24-.02.44-.07.16-.04.37-.12.44-.2.17-.11.32-.26.38-.39.1-.14.2-.38.18-.46.05-.21.04-.43-.04-.68Z"/>
  <path class="st0" d="M10.31,12.7h0c.75,0,1.34-.59,1.34-1.35s-.58-1.35-1.34-1.35c-.4,0-.76.16-1.01.44-.22.24-.33.57-.33.91,0,.77.58,1.35,1.34,1.35Z"/>
  <path class="st0" d="M27.94,18.11c.07.02.15.03.23.03.39,0,.84-.26.9-.7l1.04-6.91c.22-1.46.21-2.92-.02-4.36-.32-1.99-1.16-3.09-2.37-3.09-.22,0-.45.04-.69.11-1.85.57-2.51,2.66-2.66,3.28l-.54,2.18c-.51-.41-1.18-.66-1.96-.72-.1,0-.21-.01-.31-.01-.25,0-.5.02-.74.07-.57-.93-1.63-1.48-2.89-1.48-.08,0-.16,0-.25,0-.07,0-.15.01-.22.02.09-.42.17-.85.23-1.28.2-1.45.28-3.26-.83-4.46C16.38.3,15.75,0,15.12,0c-.11,0-.22,0-.33.03-.69.11-1.21.58-1.52.95-.93,1.1-1.41,2.52-1.8,3.77-.24.77-.43,1.53-.58,2.26-3.29.65-6.12,2.38-7.8,4.77-1.07,1.52-1.54,3.27-1.31,4.92.07.51.21,1.02.4,1.41.07.86.21,1.96.62,2.84.08.3.2.6.33.84.41,3.39,3.33,5.4,6.45,6.13-.19.1-.35.26-.45.47-.15.33-.1.7.15.97.52.59,1.23.93,1.86,1.19.69.28,1.47.51,2.43.71,1.37.29,2.89.49,4.65.62,1.24.09,2.34.13,3.36.13h.55c1.37-.03,2.94-.12,4.17-.93,1.18-.78,1.82-2.03,2.33-3.14l.17-.37c.38-.82.77-1.66.97-2.55.3-1.31.2-2.67-.29-3.94-.96-2.48-2.96-4.25-5.35-4.73-.11-.02-.22-.04-.33-.06l2.22-8.94c.13-.53.25-1.03.52-1.48.29-.47.79-.98,1.17-.98h.02c.25.09.4.81.48,1.17.4,1.83.18,3.68-.13,5.73l-.79,5.25h0c-.08.51.18.94.64,1.07ZM20.66,9.9l.14-.05c.25-.08.51-.12.76-.12h0c.32,0,1.37.08,1.52,1.11.08.55-.06,1.23-.4,2.01-.45,1.01-.96,1.71-1.57,2.14-.48.34-1.5.7-2.33.7-.29,0-.69-.05-.91-.28-.14-.15-.2-.38-.18-.66l.03-.18.03-.16c.04-.21.1-.42.16-.62l.12-.38.21-.59.06-.16.16-.35c.6-1.25,1.33-2.05,2.19-2.42ZM17.29,8.4c.21-.05.42-.08.63-.08.48,0,.89.15,1.15.41h0c-.57.39-1.09.93-1.58,1.64l-.22.35c-.66,1.08-1.13,2.29-1.33,3.49-.22.04-.48.07-.75.07-.45,0-.79-.1-.97-.28-.12-.13-.18-.3-.18-.53,0-.06,0-.12.02-.22.02-.13.05-.26.08-.39.08-.32.17-.65.28-.96.47-1.37,1.35-3.09,2.87-3.49ZM13.02,5.96c.35-1.28.7-2.33,1.25-3.27h0c.06-.11.13-.21.21-.34l.15-.2c.07-.07.13-.14.21-.21l.12-.09.13-.07.13.03s.06.02.17.09c.02.02.05.04.07.06.04.03.07.07.15.17l.1.18c.07.13.15.41.2.68.08.43.08,1.07,0,1.79-.07.65-.21,1.36-.41,2.07-.51-.08-1.02-.12-1.51-.13h-.29c-.29,0-.59,0-.89.02.06-.27.13-.54.21-.81ZM7.7,20.69c-.41-.14-.81-.31-1.18-.5-.64-.33-1.19-.73-1.66-1.2l-.16-.17c-.34-.39-.61-.82-.85-1.35l-.05-.13c-.42-1.18-.32-2.49.29-3.69,1.34-2.66,4.58-4.64,8.27-5.03l1.7.04h0c-.52.7-.95,1.53-1.31,2.51-.31.85-.58,1.68-.52,2.48.07.94.68,1.8,1.55,2.19.4.18.87.27,1.39.27.31,0,.64-.03.98-.09.35.7,1.01,1.23,1.77,1.41.24.05.5.09.77.1-.24.27-.4.58-.49.92-.04.15-.06.29-.07.45-1.25.91-2.79,1.61-4.35,1.98-.89.2-1.86.31-2.8.31-1.18,0-2.29-.16-3.28-.48ZM27.69,21.47c.44,1.03.55,2.1.32,3.1-.17.75-.51,1.49-.84,2.2l-.13.29c-.24.52-.5,1.08-.84,1.58-.06.09-.13.19-.24.33l-.13.14h0c-.07.08-.15.16-.23.22l-.18.15c-.42.29-.7.39-1.16.5-.59.14-1.15.18-1.86.21-.28,0-.57.01-.85.01-1.04,0-2.09-.06-2.88-.1-1.33-.08-2.53-.21-3.66-.4-1.53-.26-2.88-.52-3.97-1.2-.17-.11-.29-.2-.45-.38,0,0,0,0-.01-.01.41.06.82.1,1.22.11.18,0,.35.01.53.01,1.7,0,3.44-.32,5.05-.92.04.07.09.14.14.2.17.17.41.27.67.27.52,0,.91-.38.92-.97l.02-.15c.03-.15.06-.31.11-.46.02-.08.05-.16.08-.25l.09-.23c.45-1.01,1.24-1.81,2.35-2.38.76-.39,1.68-.67,2.73-.82l.64-.08c.44-.08.73-.47.68-.95-.04-.48-.39-.82-.92-.82,0,0-.77.09-.77.09-.3.02-.61.04-.92.04-.24,0-.48,0-.72-.03-.79-.06-2.16-.31-2.47-1.31-.17-.54.02-.89.6-1.12.56-.22,1.23-.34,1.96-.34.26,0,.52.02.77.05,1.9.23,3.53,1.52,4.34,3.44Z"/>
</svg>