<?xml version="1.0" encoding="UTF-8"?>
<svg id="Capa_2" xmlns="http://www.w3.org/2000/svg" version="1.1" viewBox="0 0 247.4 90.7" fill="currentColor">
  <!-- Generator: Adobe Illustrator 29.6.1, SVG Export Plug-In . SVG Version: 2.1.1 Build 9)  -->
  <polygon points="36 11.3 35.1 .1 0 .9 .8 12.1 12.4 11.8 12.5 43.8 23.6 43.3 23.5 11.6 23.5 11.6 36 11.3"/>
  <path d="M48.6,42.9v-10.7c-.1,0,1.4.1,1.4.1.8,2.5,2.2,4.7,4.1,6.8,1.9,2,4.2,3.6,6.8,4.7,2.6,1.1,5.2,1.7,7.9,1.7v-11.2c-1.6,0-3.1-.4-4.4-1.3h0c-1.3-.8-2.2-2-2.9-3.6,2.3-1.4,4.1-3.3,5.4-5.6,1.3-2.3,2-4.9,2-7.9s-.7-5.7-2.2-8c-1.5-2.3-3.6-4.1-6.4-5.4-2.8-1.3-6.3-2-10.3-2s-4.9.2-7.3.6c-2.5.4-4.4,1-5.7,1.8l.5,39.9h11.2ZM50,11.1c.8-.2,1.5-.3,2.2-.3,1,0,1.9.3,2.8.8.9.5,1.5,1.2,2,2.1.5.8.8,1.7.8,2.6s-.3,2-1.1,2.9c-.7.9-1.6,1.5-2.7,2-1.1.5-2.3.7-3.4.7s-1.5-.1-2.2-.4h0v-9.8c.3-.2.9-.4,1.7-.6Z"/>
  <polygon points="100.8 42.7 100.8 31.5 82.5 32.3 82.2 27 97.8 26.6 97.2 15.5 81.5 15.8 81.3 11.4 100.2 11.2 99.4 0 69.9 .9 71.3 43.4 100.8 42.7"/>
  <polygon points="137.1 18.4 138.3 43.5 149.4 43.1 147.5 1.1 130 1.1 125.8 23.8 119.5 1.4 111 1.1 102.9 .6 102.9 42.9 114.1 42.9 114.4 20 120.6 43.5 131.8 43.5 137.1 18.4"/>
  <polygon points="138.3 43.5 138.3 43.5 138.2 43.5 138.3 43.5"/>
  <path d="M162.7,43.4l-.3-11.2c1.2.2,2.3.3,3.3.3,3.2,0,6.1-.7,8.7-2.1,2.7-1.4,4.8-3.3,6.3-5.8,1.5-2.4,2.3-4.9,2.3-7.9s-.9-5.7-2.6-8.1c-1.7-2.4-4-4.3-6.9-5.7h0c-2.9-1.4-5.9-2.1-9.2-2.1s-8.9,1.3-14,3.8l1.1,38.8h11.2ZM165.2,10.3c1.8,0,3.4.6,4.7,1.8,1.3,1.2,2,2.7,2,4.5s-.3,2-1,2.9-1.5,1.6-2.7,2.1c-1.1.5-2.2.8-3.4.8h0c-.9,0-1.8-.2-2.6-.5l-.2-10.8c1-.6,2.1-.8,3.2-.8Z"/>
  <path d="M195.1.9l-18.3,37.3,11.2,4.6,3.6-8.9h14.2c0,0,0,0,0,0l2.5,9.3,11.2-2.7L206.3,1.1h-11.2ZM196,22.8l4-10,2.7,10h-6.7Z"/>
  <polygon points="234.9 11.6 247.4 11.3 246.5 .1 211.5 1 212.2 12.1 223.9 11.8 224 43.8 235 43.3 234.9 11.6 234.9 11.6"/>
  <path d="M59.4,70.3c-1.1-.8-2.4-1.2-3.7-1.2h0c-.4,0-.8,0-1,0,1.6-.3,2.9-1.2,3.9-2.8s1.5-3.3,1.5-5.2-.6-3-1.7-4.3c-1.1-1.3-2.6-2.3-4.3-3.1-1.8-.8-3.7-1.1-5.6-1.1s-4.3.1-6.7.4c-2.3.3-4.1.8-5.2,1.4l-.2,34.3h7.2c6.6,0,11.5-.9,14.7-2.6,3.2-1.7,4.8-4.4,4.8-8s-.3-3.3-1-4.7c-.7-1.4-1.5-2.5-2.7-3.3ZM45.5,60.4c.7-.3,1.4-.5,2.2-.5s1.9.3,2.6.8h0c.7.5,1,1.2,1,2.1s-.5,1.6-1.4,2.3c-.9.6-2,.9-3.1.9s-1,0-1.4-.2v-5.4ZM51.4,80h0c-1.1.8-2.4,1.2-3.9,1.2s-1.3-.1-1.9-.4v-6.3c1-.5,2.1-.8,3.2-.8s2.2.3,3,.9c.8.6,1.2,1.4,1.2,2.3s-.5,2.2-1.6,3Z"/>
  <path d="M80.2,55.1c.6,2.4,1.1,4.9,1.6,7.5.4,2.6.6,4.6.6,5.9,0,7.6-1.5,11.3-4.7,11.3s-4.8-3.9-4.8-11.6v-1.4c.4-2.7.6-4.9.8-6.6.2-1.8.4-3.3.8-4.8l-10.1-2.5c-1.2,4.6-1.9,9.5-1.9,14.7s.6,8.3,1.8,11.5c1.2,3.2,3,5.7,5.3,7.5h0c2.3,1.8,5.1,2.6,8.1,2.6s5.7-.9,7.9-2.5c2.2-1.7,4-4.1,5.2-7.2,1.2-3.1,1.8-6.8,1.8-11,0-6.2-.8-11.6-2.5-16.2l-10,2.8Z"/>
  <path d="M118.8,72.4c1.1-1.9,1.7-4.1,1.7-6.7s-.6-4.8-1.8-6.8c-1.2-2-3-3.5-5.4-4.6-2.4-1.1-5.3-1.7-8.7-1.7s-4.1.2-6.2.5c-2.1.4-3.7.8-4.8,1.5l.4,33.7h9.4v-9c0,0,1.2,0,1.2,0,.7,2.1,1.8,4,3.5,5.7,1.6,1.7,3.5,3,5.7,4s4.4,1.4,6.7,1.4v-9.4c-1.4,0-2.6-.4-3.7-1.1h0c-1.1-.7-1.9-1.7-2.4-3,1.9-1.2,3.5-2.8,4.6-4.7ZM110.2,68.4c-.6.7-1.4,1.3-2.3,1.7-.9.4-1.9.6-2.9.6s-1.3-.1-1.8-.3h0s0-8.3,0-8.3c.3-.2.8-.4,1.5-.5.7-.2,1.3-.2,1.8-.2.8,0,1.6.2,2.4.7.7.4,1.3,1,1.7,1.7.4.7.6,1.5.6,2.2s-.3,1.7-.9,2.5Z"/>
  <path d="M138.6,65.1l-1.9,8.4,8.4,1.6c-.2.8-.8,1.5-1.8,2.1s-2,1-3,1.3c-.5,0-.9.1-1.4.1-1.8,0-3.5-.6-4.9-1.9-1.4-1.3-2.4-2.9-2.8-4.8,0-.5-.1-1.1-.1-1.6,0-1.8.6-3.5,1.7-5.1,1.1-1.5,2.5-2.5,4.3-2.9.7-.2,1.4-.2,2.1-.2,1.2,0,2.3.2,3.4.5,1.1.4,2,.9,2.7,1.5l5-7.7c-1.3-1.2-3-2-5-2.7-2-.6-4.1-.9-6.3-.9s-2.6.1-3.9.4c-2.7.6-5.2,1.8-7.3,3.5-2.1,1.8-3.8,3.9-5,6.4s-1.8,5.1-1.8,7.8.1,2.4.3,3.4c.6,2.8,1.8,5.2,3.6,7.4,1.8,2.2,3.9,3.9,6.4,5.1,2.5,1.2,5.1,1.8,7.9,1.8s2.2-.1,3.4-.4c2.4-.5,4.5-1.5,6.5-3.1,1.9-1.6,3.4-3.4,4.5-5.6,1.1-2.2,1.6-4.4,1.6-6.7h0c0-1.8-.3-3.4-.9-4.9l-15.6-3.1Z"/>
  <polygon points="181.2 78.9 181.2 78.9 181.2 78.9 181.2 78.9"/>
  <polygon points="165.5 75 178.6 74.7 178.1 65.3 164.9 65.6 164.7 61.9 180.6 61.7 179.9 52.3 155.1 53.1 156.3 88.8 181.2 88.3 181.2 78.9 165.7 79.5 165.5 75"/>
  <path d="M207.3,72.4c1.1-1.9,1.7-4.1,1.7-6.7s-.6-4.8-1.8-6.8c-1.2-2-3-3.5-5.4-4.6-2.4-1.1-5.3-1.7-8.7-1.7s-4.1.2-6.2.5c-2.1.4-3.7.8-4.8,1.5l.4,33.7h9.4v-9c0,0,1.2,0,1.2,0,.7,2.1,1.8,4,3.5,5.7,1.6,1.7,3.5,3,5.7,4s4.4,1.4,6.7,1.4v-9.4c-1.4,0-2.6-.4-3.7-1.1h0c-1.1-.7-1.9-1.7-2.5-3,2-1.2,3.5-2.8,4.6-4.7ZM198.6,68.4c-.6.7-1.4,1.3-2.3,1.7-.9.4-1.9.6-2.9.6s-1.3-.1-1.8-.3h0s0-8.3,0-8.3c.3-.2.8-.4,1.5-.5.7-.2,1.3-.2,1.8-.2.8,0,1.6.2,2.3.7.7.4,1.3,1,1.7,1.7.4.7.6,1.5.6,2.2s-.3,1.7-.9,2.5Z"/>
</svg>