<?xml version="1.0" encoding="UTF-8"?>
<svg id="Layer_1" xmlns="http://www.w3.org/2000/svg" version="1.1" viewBox="0 0 1000 97.4" fill="currentColor">
  <!-- Generator: Adobe Illustrator 29.6.1, SVG Export Plug-In . SVG Version: 2.1.1 Build 9)  -->
  <polygon points="73.8 .2 0 2 1.6 25.5 26.1 24.9 26.3 92.1 49.6 91.1 49.4 24.3 75.7 23.7 73.8 .2"/>
  <path d="M140.9,50.4h0c2.8-4.9,4.2-10.4,4.2-16.7s-1.5-12.1-4.6-16.9c-3.1-4.9-7.6-8.7-13.5-11.4-6-2.7-13.2-4.1-21.7-4.1s-10.2.5-15.5,1.4c-5.2.9-9.2,2.1-11.9,3.7l.9,84h23.5l-.2-22.4,3.2.2c1.7,5.3,4.6,10,8.6,14.2,4,4.2,8.8,7.5,14.2,9.9,5.4,2.4,11,3.6,16.6,3.6v-23.5c-3.4,0-6.5-.9-9.2-2.7-2.7-1.8-4.7-4.3-6.1-7.5,4.9-3,8.7-6.9,11.5-11.8ZM119.3,40.3h0c-1.5,1.8-3.4,3.2-5.8,4.2-2.3,1-4.7,1.5-7.2,1.5s-3.3-.3-4.6-.8l-.2-20.7c.8-.5,2-.9,3.7-1.3,1.7-.4,3.2-.6,4.5-.6,2.1,0,4.1.5,5.9,1.6,1.8,1.1,3.2,2.5,4.3,4.3,1.1,1.8,1.6,3.6,1.6,5.5s-.7,4.3-2.2,6.1Z"/>
  <polygon points="173 56.8 205.8 56.1 204.6 32.6 171.6 33.3 171.1 24 210.8 23.5 209.2 0 147.1 2 150.2 91.3 212.3 89.9 212.3 66.4 173.6 67.9 173 56.8"/>
  <polygon points="296.5 2.2 273.7 2.2 264.8 50.2 251.6 2.9 233.6 2.4 216.7 1.3 216.7 90.4 240.2 90.3 240.8 42.2 253.9 91.6 277.4 91.6 288.6 38.8 291.1 91.6 314.6 90.7 310.5 2.2 296.5 2.2"/>
  <path d="M380.5,51.7h0c3.2-5.1,4.8-10.7,4.8-16.7s-1.8-12.1-5.5-17.2-8.5-9.1-14.5-12c-6-2.9-12.5-4.3-19.4-4.3s-18.7,2.7-29.4,8.1l2.3,81.7h23.5l-.6-23.6c2.6.4,4.9.6,7.1.6,6.7,0,12.8-1.5,18.4-4.5,5.6-3,10-7,13.2-12.1ZM359.7,41.1c-1.4,1.9-3.3,3.4-5.6,4.5-2.3,1.1-4.7,1.6-7.2,1.6s-3.7-.4-5.5-1.1l-.5-22.8c2.2-1.2,4.5-1.8,6.8-1.8,3.8,0,7.1,1.3,9.9,3.8,2.8,2.5,4.2,5.7,4.2,9.6s-.7,4.2-2.1,6.1Z"/>
  <path d="M410.8,2h0l-38.5,78.6,23.5,9.6,7.5-18.7h29.9c0,.1,5.3,19.7,5.3,19.7l23.5-5.6L434.3,2.2l-23.5-.2ZM412.6,48.1l8.5-21,5.6,21.2h-14.1Z"/>
  <polygon points="519 .2 445.2 2 446.8 25.5 471.3 24.9 471.5 92.1 494.8 91.1 494.5 24.3 520.9 23.7 519 .2"/>
  <path d="M622.5,46.1h0c-2.8-2-6-3-9.4-3s-1.9,0-2.5.1c4-.8,7.3-3.1,9.8-7,2.5-3.9,3.7-8.2,3.7-13.1s-1.4-7.6-4.2-10.8c-2.8-3.2-6.5-5.8-11-7.7-4.5-1.9-9.2-2.9-14.1-2.9s-10.9.3-16.8,1c-5.9.7-10.3,1.9-13.1,3.6l-.5,86.5h18.1c16.7,0,29.1-2.2,37.2-6.6,8.1-4.4,12.1-11.1,12.1-20.1s-.8-8.3-2.5-11.8c-1.7-3.5-3.9-6.3-6.7-8.3ZM587.3,21h0c1.7-.9,3.6-1.3,5.6-1.3s4.9.7,6.6,2c1.7,1.3,2.6,3.1,2.6,5.2s-1.2,4.1-3.4,5.7c-2.3,1.6-4.9,2.4-7.8,2.4s-2.5-.2-3.4-.5v-13.6ZM602.1,70.5h0c-2.7,2.1-6,3.1-9.9,3.1s-3.4-.3-4.9-1v-15.9c2.5-1.3,5.2-2,8.2-2s5.5.8,7.6,2.3c2.1,1.5,3.1,3.5,3.1,5.9s-1.4,5.5-4.1,7.6Z"/>
  <path d="M675,7.7c1.6,6,2.9,12.4,3.9,19,1,6.7,1.5,11.6,1.5,14.9,0,19.1-3.9,28.6-11.8,28.6s-12-9.7-12-29.2l.4-3.4c.6-6.7,1.1-12.3,1.5-16.7s1.1-8.5,1.9-12.2l-25.6-6.2c-3.2,11.6-4.8,24-4.8,37.1s1.5,20.9,4.6,29.1c3.1,8.2,7.5,14.5,13.3,18.8,5.8,4.4,12.6,6.5,20.6,6.5s14.4-2.1,20-6.4c5.7-4.3,10-10.4,13.1-18.2,3.1-7.9,4.6-17.1,4.6-27.8,0-15.6-2.1-29.3-6.3-41l-25.2,7.1Z"/>
  <polygon points="675 7.7 675 7.7 675 7.7 675 7.7"/>
  <path d="M772.5,51.4h0c2.8-4.9,4.2-10.5,4.2-16.9s-1.5-12.2-4.6-17.1c-3.1-4.9-7.6-8.8-13.7-11.5-6-2.8-13.4-4.2-22-4.2s-10.4.5-15.6,1.4c-5.3.9-9.3,2.2-12.1,3.7l1,85h23.8l-.2-22.7,3.2.2c1.7,5.3,4.7,10.1,8.7,14.4,4.1,4.3,8.9,7.6,14.4,10,5.5,2.4,11.1,3.6,16.8,3.6v-23.8c-3.5,0-6.6-.9-9.3-2.7-2.7-1.8-4.8-4.4-6.2-7.6,4.9-3,8.8-7,11.6-11.9ZM750.6,41.2c-1.5,1.8-3.4,3.3-5.8,4.3-2.4,1-4.8,1.5-7.2,1.5s-3.3-.3-4.6-.8l-.2-20.9c.8-.5,2-.9,3.7-1.3,1.7-.4,3.2-.6,4.6-.6,2.1,0,4.1.6,5.9,1.7,1.8,1.1,3.3,2.6,4.3,4.4,1.1,1.8,1.6,3.7,1.6,5.6s-.8,4.4-2.3,6.2h0Z"/>
  <path d="M822.3,32.9h0s-4.9,21.3-4.9,21.3l21.2,4c-.6,2-2.1,3.8-4.6,5.3-2.5,1.6-5.1,2.7-7.7,3.2-1.2.2-2.3.4-3.4.4-4.6,0-8.7-1.6-12.4-4.8-3.6-3.2-6-7.3-7.1-12.2-.2-1.3-.4-2.7-.4-3.9,0-4.7,1.4-8.9,4.2-12.8s6.4-6.3,10.8-7.3c1.8-.4,3.6-.6,5.3-.6,2.9,0,5.8.5,8.6,1.4,2.8.9,5.1,2.2,6.8,3.9l12.6-19.5c-3.2-2.9-7.4-5.2-12.5-6.7-5.1-1.5-10.4-2.3-15.9-2.3s-6.5.3-9.9,1c-6.9,1.5-13,4.5-18.4,8.9-5.4,4.4-9.6,9.8-12.5,16.2-3,6.3-4.5,12.9-4.5,19.7s.3,6,.8,8.7c1.5,7,4.5,13.2,9,18.8,4.5,5.5,9.9,9.9,16.2,13,6.3,3.1,13,4.6,19.8,4.6s5.7-.3,8.7-1c6-1.3,11.5-3.9,16.3-7.8,4.8-3.9,8.6-8.7,11.3-14.2,2.7-5.5,4.1-11.2,4.1-17s-.8-8.6-2.4-12.4l-39.3-7.8Z"/>
  <polygon points="890.2 57.9 923.3 57.1 922.1 33.4 888.8 34.1 888.3 24.7 928.4 24.2 926.8 .5 864 2.5 867.1 92.8 929.9 91.4 929.9 67.6 890.8 69.2 890.2 57.9"/>
  <path d="M984.2,63.3h0c4.9-3,8.8-7,11.6-11.9,2.8-4.9,4.2-10.5,4.2-16.9s-1.5-12.2-4.6-17.1c-3.1-4.9-7.6-8.8-13.7-11.5-6-2.8-13.4-4.2-22-4.2s-10.4.5-15.6,1.4c-5.3.9-9.3,2.2-12.1,3.7l1,85h23.8l-.2-22.7,3.2.2c1.7,5.3,4.7,10.1,8.7,14.4,4.1,4.3,8.9,7.6,14.4,10,5.5,2.4,11.1,3.6,16.8,3.6v-23.8c-3.5,0-6.6-.9-9.3-2.7-2.7-1.8-4.8-4.4-6.2-7.6ZM974,41.2c-1.5,1.8-3.4,3.3-5.8,4.3-2.4,1-4.8,1.5-7.2,1.5s-3.3-.3-4.6-.8l-.2-20.9c.8-.5,2-.9,3.7-1.3,1.7-.4,3.2-.6,4.6-.6,2.1,0,4.1.6,5.9,1.7,1.8,1.1,3.3,2.6,4.3,4.4,1.1,1.8,1.6,3.7,1.6,5.6s-.8,4.4-2.3,6.2h0Z"/>
</svg>